<svg width="142" height="58" viewBox="0 0 142 58" fill="none" xmlns="http://www.w3.org/2000/svg">
<path d="M46.5351 58H29.4494C20.2231 58 12.1359 51 10.9969 42.1111L8.14925 25.5C7.52278 20.7778 8.88963 16.3333 11.8511 13.1111C14.8127 9.88889 19.141 8 23.7542 8H57.9255C62.6525 8 66.924 9.94444 69.6577 13.3333C70.2841 14.1667 70.8537 15.0556 71.3093 16.0556C73.7582 15.5556 76.2641 15.5556 78.6561 16.0556C79.1117 15.0556 79.6812 14.1667 80.3647 13.3333C83.0414 9.94444 87.3128 8 92.0968 8H126.268C130.881 8 135.21 9.88889 138.171 13.1111C141.076 16.3333 142.443 20.7778 141.873 25.2778L138.969 42.3333C137.886 51 129.742 58 120.573 58H103.487C94.6027 58 85.946 51.3889 83.7818 43L78.6561 27.9444C76.4919 26.3889 73.4735 26.3889 71.3093 27.9444L66.0697 43.3889C64.0194 51.4444 55.4196 58 46.5351 58Z" fill="#F3547A"/>
<path d="M43.5351 55H26.4494C17.2231 55 9.13591 48 7.99686 39.1111L5.14925 22.5C4.52278 17.7778 5.88963 13.3333 8.85115 10.1111C11.8127 6.88889 16.141 5 20.7542 5H54.9255C59.6525 5 63.924 6.94444 66.6577 10.3333C67.2841 11.1667 67.8537 12.0556 68.3093 13.0556C70.7582 12.5556 73.2641 12.5556 75.6561 13.0556C76.1117 12.0556 76.6812 11.1667 77.3647 10.3333C80.0414 6.94444 84.3128 5 89.0968 5H123.268C127.881 5 132.21 6.88889 135.171 10.1111C138.076 13.3333 139.443 17.7778 138.873 22.2778L135.969 39.3333C134.886 48 126.742 55 117.573 55H100.487C91.6027 55 82.946 48.3889 80.7818 40L75.6561 24.9444C73.4919 23.3889 70.4735 23.3889 68.3093 24.9444L63.0697 40.3889C61.0194 48.4444 52.4196 55 43.5351 55Z" fill="#476AE9"/>
<path d="M38.5351 50H21.4494C12.2231 50 4.13591 43 2.99686 34.1111L0.149254 17.5C-0.477221 12.7778 0.889633 8.33333 3.85115 5.11111C6.81266 1.88889 11.141 0 15.7542 0H49.9255C54.6525 0 58.924 1.94444 61.6577 5.33333C62.2841 6.16667 62.8537 7.05555 63.3093 8.05555C65.7582 7.55555 68.2641 7.55555 70.6561 8.05555C71.1117 7.05555 71.6812 6.16667 72.3647 5.33333C75.0414 1.94444 79.3128 0 84.0968 0H118.268C122.881 0 127.21 1.88889 130.171 5.11111C133.076 8.33333 134.443 12.7778 133.873 17.2778L130.969 34.3333C129.886 43 121.742 50 112.573 50H95.4873C86.6027 50 77.946 43.3889 75.7818 35L70.6561 19.9444C68.4919 18.3889 65.4735 18.3889 63.3093 19.9444L58.0697 35.3889C56.0194 43.4444 47.4196 50 38.5351 50Z" fill="#92AAFF"/>
</svg>